# xmcd CD database file
#
# Track frame offsets:
#	150
#	11197
#	24593
#	34932
#	46812
#	59921
#	70343
#	81425
#	96448
#	105827
#	117355
#	128325
#	141627
#	152882
#
# Disc length: 2222 seconds
#
# Revision: 2
# Processed by: cddbd v1.5.2PL0 Copyright (c) Steve Scherf et al.
# Submitted via: CDex 1.70beta2
#
DISCID=c708ac0e
DTITLE=Kenny Rogers and Dolly Parton - Kenny and Dolly made in E.U. CD 3
DYEAR=2011
DGENRE=Country
TTITLE0=It Wasn't God Who Made Honky Tonk Angels ( 1963 ) - Dolly Parton
TTITLE1=Ruby Don't Take Your Love To Town ( 1969 ) - Kenny Rogers and The First Edition
TTITLE2=Release Me ( 1963 ) - Dolly Parton
TTITLE3=Me And Bobby McGee ( 1969 ) - Kenny Rogers and The First Edition
TTITLE4=Little Blossom ( 1963 ) - Dolly Parton
TTITLE5=Good Time Liberator ( 1969 ) - Kenny Rogers and The First Edition
TTITLE6=The Giving And The Taking ( 1967 ) - Dolly Parton
TTITLE7=All God's Lonely Children ( 1971 ) - Kenny Rogers and The First Edition
TTITLE8=Busy Signal ( 1965 ) - Dolly Parton
TTITLE9=If Wishes Were Horses ( 1967 ) - Kenny Rogers and The First Edition
TTITLE10=I Took Him For Granted ( 1965 ) - Dolly Parton
TTITLE11=Shine On Ruby Mountain ( 1970 ) - Kenny Rogers and The First Edition
TTITLE12=What Do You Think About Loving ( 1964 ) - Dolly Parton
TTITLE13=I Was The Loser ( 1967 ) - Kenny Rogers and The First Edition
EXTD=YEAR: 2011
EXTT0=
EXTT1=
EXTT2=
EXTT3=
EXTT4=
EXTT5=
EXTT6=
EXTT7=
EXTT8=
EXTT9=
EXTT10=
EXTT11=
EXTT12=
EXTT13=
PLAYORDER=
